<svg xmlns="http://www.w3.org/2000/svg" width="3148" height="260" viewBox="0 0 3148 260" font-family="ui-sans-serif, -apple-system, 'Segoe UI', Roboto, Helvetica, Arial, sans-serif">
<defs><marker id="a" viewBox="0 0 10 10" refX="9" refY="5" markerWidth="7" markerHeight="7" orient="auto-start-reverse"><path d="M0,0 L10,5 L0,10 z" fill="#9aa3ad"/></marker></defs>
<rect width="3148" height="260" fill="#fcfcfb"/>
<path d="M116.6,121.0 C148.6,121.0 148.6,71.5 180.6,71.5" fill="none" stroke="#9aa3ad" stroke-width="1.4" marker-end="url(#a)"/>
<path d="M116.6,49.0 C148.6,49.0 148.6,188.5 180.6,188.5" fill="none" stroke="#9aa3ad" stroke-width="1.4" marker-end="url(#a)"/>
<path d="M1617.2,49.0 C1649.2,49.0 1649.2,71.5 1681.2,71.5" fill="none" stroke="#9aa3ad" stroke-width="1.4" marker-end="url(#a)"/>
<path d="M1447.4,71.5 C1479.4,71.5 1479.4,49.0 1511.4,49.0" fill="none" stroke="#9aa3ad" stroke-width="1.4" marker-end="url(#a)"/>
<path d="M1447.4,188.5 C1479.4,188.5 1479.4,49.0 1511.4,49.0" fill="none" stroke="#9aa3ad" stroke-width="1.4" marker-end="url(#a)"/>
<path d="M2967.8,71.5 C2999.8,71.5 2999.8,49.0 3031.8,49.0" fill="none" stroke="#9aa3ad" stroke-width="1.4" marker-end="url(#a)"/>
<path d="M627.8,49.0 C664.8,49.0 664.8,71.5 701.7,71.5" fill="none" stroke="#9aa3ad" stroke-width="1.4" marker-end="url(#a)"/>
<path d="M385.4,71.5 C417.4,71.5 417.4,49.0 449.4,49.0" fill="none" stroke="#9aa3ad" stroke-width="1.4" marker-end="url(#a)"/>
<path d="M1178.6,49.0 C1210.6,49.0 1210.6,71.5 1242.6,71.5" fill="none" stroke="#9aa3ad" stroke-width="1.4" marker-end="url(#a)"/>
<path d="M886.7,71.5 C923.6,71.5 923.6,49.0 960.6,49.0" fill="none" stroke="#9aa3ad" stroke-width="1.4" marker-end="url(#a)"/>
<path d="M627.8,121.0 C659.8,121.0 659.8,188.5 691.8,188.5" fill="none" stroke="#9aa3ad" stroke-width="1.4" marker-end="url(#a)"/>
<path d="M385.4,188.5 C417.4,188.5 417.4,121.0 449.4,121.0" fill="none" stroke="#9aa3ad" stroke-width="1.4" marker-end="url(#a)"/>
<path d="M1178.6,121.0 C1210.6,121.0 1210.6,188.5 1242.6,188.5" fill="none" stroke="#9aa3ad" stroke-width="1.4" marker-end="url(#a)"/>
<path d="M896.6,188.5 C928.6,188.5 928.6,121.0 960.6,121.0" fill="none" stroke="#9aa3ad" stroke-width="1.4" marker-end="url(#a)"/>
<path d="M2181.2,49.0 C2213.2,49.0 2213.2,71.5 2245.2,71.5" fill="none" stroke="#9aa3ad" stroke-width="1.4" marker-end="url(#a)"/>
<path d="M1886.0,71.5 C1918.0,71.5 1918.0,49.0 1950.0,49.0" fill="none" stroke="#9aa3ad" stroke-width="1.4" marker-end="url(#a)"/>
<path d="M2718.8,49.0 C2750.8,49.0 2750.8,71.5 2782.8,71.5" fill="none" stroke="#9aa3ad" stroke-width="1.4" marker-end="url(#a)"/>
<path d="M2450.0,71.5 C2482.0,71.5 2482.0,49.0 2514.0,49.0" fill="none" stroke="#9aa3ad" stroke-width="1.4" marker-end="url(#a)"/>
<rect x="24.0" y="96.0" width="92.6" height="50.0" rx="9" fill="#fdf3c8" stroke="#b9992a" stroke-width="1.5"/>
<text x="70.3" y="117.0" text-anchor="middle" font-size="11" font-weight="600" fill="#0b0b0b">silu_cut_in</text>
<text x="70.3" y="132.0" text-anchor="middle" font-size="10" font-weight="400" fill="#52514e">(32, 9216)</text>
<rect x="24.0" y="24.0" width="92.6" height="50.0" rx="9" fill="#fdf3c8" stroke="#b9992a" stroke-width="1.5"/>
<text x="70.3" y="45.0" text-anchor="middle" font-size="11" font-weight="600" fill="#0b0b0b">U_bridge_in</text>
<text x="70.3" y="60.0" text-anchor="middle" font-size="10" font-weight="400" fill="#52514e">(32, 9216)</text>
<rect x="1511.4" y="24.0" width="105.8" height="50.0" rx="9" fill="#dbeafe" stroke="#2a78d6" stroke-width="1.5"/>
<text x="1564.3" y="45.0" text-anchor="middle" font-size="11" font-weight="600" fill="#0b0b0b">mul</text>
<text x="1564.3" y="60.0" text-anchor="middle" font-size="10" font-weight="400" fill="#52514e">z0=32 z1=9216</text>
<rect x="3031.8" y="24.0" width="92.6" height="50.0" rx="9" fill="#d6f5e3" stroke="#1baf7a" stroke-width="1.5"/>
<text x="3078.1" y="45.0" text-anchor="middle" font-size="11" font-weight="600" fill="#0b0b0b">mul_cut_out</text>
<text x="3078.1" y="60.0" text-anchor="middle" font-size="10" font-weight="400" fill="#52514e">(32, 9216)</text>
<rect x="449.4" y="24.0" width="178.4" height="50.0" rx="9" fill="#ffe6d1" stroke="#eb6834" stroke-width="1.5"/>
<text x="538.6" y="45.0" text-anchor="middle" font-size="11" font-weight="600" fill="#0b0b0b">Transfer(S) · MEM_TO_MEM</text>
<text x="538.6" y="60.0" text-anchor="middle" font-size="10" font-weight="400" fill="#52514e">z0=32 z1=9216</text>
<rect x="960.6" y="24.0" width="218.0" height="50.0" rx="9" fill="#ffe6d1" stroke="#eb6834" stroke-width="1.5"/>
<text x="1069.6" y="45.0" text-anchor="middle" font-size="11" font-weight="600" fill="#0b0b0b">Transfer(S_1) · MEM_TO_COMPUTE</text>
<text x="1069.6" y="60.0" text-anchor="middle" font-size="10" font-weight="400" fill="#52514e">z0=32 z1=9216</text>
<rect x="449.4" y="96.0" width="178.4" height="50.0" rx="9" fill="#ffe6d1" stroke="#eb6834" stroke-width="1.5"/>
<text x="538.6" y="117.0" text-anchor="middle" font-size="11" font-weight="600" fill="#0b0b0b">Transfer(U) · MEM_TO_MEM</text>
<text x="538.6" y="132.0" text-anchor="middle" font-size="10" font-weight="400" fill="#52514e">z0=32 z1=9216</text>
<rect x="960.6" y="96.0" width="218.0" height="50.0" rx="9" fill="#ffe6d1" stroke="#eb6834" stroke-width="1.5"/>
<text x="1069.6" y="117.0" text-anchor="middle" font-size="11" font-weight="600" fill="#0b0b0b">Transfer(U_1) · MEM_TO_COMPUTE</text>
<text x="1069.6" y="132.0" text-anchor="middle" font-size="10" font-weight="400" fill="#52514e">z0=32 z1=9216</text>
<rect x="1950.0" y="24.0" width="231.2" height="50.0" rx="9" fill="#ffe6d1" stroke="#eb6834" stroke-width="1.5"/>
<text x="2065.6" y="45.0" text-anchor="middle" font-size="11" font-weight="600" fill="#0b0b0b">Transfer(A16_1) · COMPUTE_TO_MEM</text>
<text x="2065.6" y="60.0" text-anchor="middle" font-size="10" font-weight="400" fill="#52514e">z0=32 z1=9216</text>
<rect x="2514.0" y="24.0" width="204.8" height="50.0" rx="9" fill="#ffe6d1" stroke="#eb6834" stroke-width="1.5"/>
<text x="2616.4" y="45.0" text-anchor="middle" font-size="11" font-weight="600" fill="#0b0b0b">Transfer(A16_2) · MEM_TO_MEM</text>
<text x="2616.4" y="60.0" text-anchor="middle" font-size="10" font-weight="400" fill="#52514e">z0=32 z1=9216</text>
<rect x="180.6" y="24.0" width="204.8" height="95.0" rx="9" fill="#f1f3f5" stroke="#8a929b" stroke-width="1.5"/>
<text x="283.0" y="45.0" text-anchor="middle" font-size="11" font-weight="600" fill="#0b0b0b">S</text>
<text x="283.0" y="60.0" text-anchor="middle" font-size="10" font-weight="400" fill="#52514e">(32, 9216)</text>
<text x="283.0" y="75.0" text-anchor="middle" font-size="10" font-weight="400" fill="#52514e">z0=32 z1=9216</text>
<text x="283.0" y="90.0" text-anchor="middle" font-size="10" font-weight="400" fill="#52514e">ForLoops:</text>
<text x="283.0" y="105.0" text-anchor="middle" font-size="10" font-weight="400" fill="#52514e">T(z0,1,V): 1; Reuse=No Reuse</text>
<rect x="180.6" y="141.0" width="204.8" height="95.0" rx="9" fill="#f1f3f5" stroke="#8a929b" stroke-width="1.5"/>
<text x="283.0" y="162.0" text-anchor="middle" font-size="11" font-weight="600" fill="#0b0b0b">U</text>
<text x="283.0" y="177.0" text-anchor="middle" font-size="10" font-weight="400" fill="#52514e">(32, 9216)</text>
<text x="283.0" y="192.0" text-anchor="middle" font-size="10" font-weight="400" fill="#52514e">z0=32 z1=9216</text>
<text x="283.0" y="207.0" text-anchor="middle" font-size="10" font-weight="400" fill="#52514e">ForLoops:</text>
<text x="283.0" y="222.0" text-anchor="middle" font-size="10" font-weight="400" fill="#52514e">T(z0,1,V): 1; Reuse=No Reuse</text>
<rect x="1681.2" y="24.0" width="204.8" height="95.0" rx="9" fill="#f1f3f5" stroke="#8a929b" stroke-width="1.5"/>
<text x="1783.6" y="45.0" text-anchor="middle" font-size="11" font-weight="600" fill="#0b0b0b">A16_1</text>
<text x="1783.6" y="60.0" text-anchor="middle" font-size="10" font-weight="400" fill="#52514e">(32, 9216)</text>
<text x="1783.6" y="75.0" text-anchor="middle" font-size="10" font-weight="400" fill="#52514e">z0=32 z1=9216</text>
<text x="1783.6" y="90.0" text-anchor="middle" font-size="10" font-weight="400" fill="#52514e">ForLoops:</text>
<text x="1783.6" y="105.0" text-anchor="middle" font-size="10" font-weight="400" fill="#52514e">T(z0,1,V): 1; Reuse=No Reuse</text>
<rect x="1242.6" y="24.0" width="204.8" height="95.0" rx="9" fill="#f1f3f5" stroke="#8a929b" stroke-width="1.5"/>
<text x="1345.0" y="45.0" text-anchor="middle" font-size="11" font-weight="600" fill="#0b0b0b">S_2</text>
<text x="1345.0" y="60.0" text-anchor="middle" font-size="10" font-weight="400" fill="#52514e">(32, 9216)</text>
<text x="1345.0" y="75.0" text-anchor="middle" font-size="10" font-weight="400" fill="#52514e">z0=32 z1=9216</text>
<text x="1345.0" y="90.0" text-anchor="middle" font-size="10" font-weight="400" fill="#52514e">ForLoops:</text>
<text x="1345.0" y="105.0" text-anchor="middle" font-size="10" font-weight="400" fill="#52514e">T(z0,1,V): 1; Reuse=No Reuse</text>
<rect x="1242.6" y="141.0" width="204.8" height="95.0" rx="9" fill="#f1f3f5" stroke="#8a929b" stroke-width="1.5"/>
<text x="1345.0" y="162.0" text-anchor="middle" font-size="11" font-weight="600" fill="#0b0b0b">U_2</text>
<text x="1345.0" y="177.0" text-anchor="middle" font-size="10" font-weight="400" fill="#52514e">(32, 9216)</text>
<text x="1345.0" y="192.0" text-anchor="middle" font-size="10" font-weight="400" fill="#52514e">z0=32 z1=9216</text>
<text x="1345.0" y="207.0" text-anchor="middle" font-size="10" font-weight="400" fill="#52514e">ForLoops:</text>
<text x="1345.0" y="222.0" text-anchor="middle" font-size="10" font-weight="400" fill="#52514e">T(z0,1,V): 1; Reuse=No Reuse</text>
<rect x="2782.8" y="24.0" width="185.0" height="95.0" rx="9" fill="#f1f3f5" stroke="#8a929b" stroke-width="1.5"/>
<text x="2875.3" y="45.0" text-anchor="middle" font-size="11" font-weight="600" fill="#0b0b0b">A16</text>
<text x="2875.3" y="60.0" text-anchor="middle" font-size="10" font-weight="400" fill="#52514e">(32, 9216)</text>
<text x="2875.3" y="75.0" text-anchor="middle" font-size="10" font-weight="400" fill="#52514e">z0=32 z1=9216</text>
<text x="2875.3" y="90.0" text-anchor="middle" font-size="10" font-weight="400" fill="#52514e">ForLoops:</text>
<text x="2875.3" y="105.0" text-anchor="middle" font-size="10" font-weight="400" fill="#52514e">T(z0,1,V): 1; Reuse=Reuse</text>
<rect x="701.7" y="24.0" width="185.0" height="95.0" rx="9" fill="#f1f3f5" stroke="#8a929b" stroke-width="1.5"/>
<text x="794.2" y="45.0" text-anchor="middle" font-size="11" font-weight="600" fill="#0b0b0b">S_1</text>
<text x="794.2" y="60.0" text-anchor="middle" font-size="10" font-weight="400" fill="#52514e">(32, 9216)</text>
<text x="794.2" y="75.0" text-anchor="middle" font-size="10" font-weight="400" fill="#52514e">z0=32 z1=9216</text>
<text x="794.2" y="90.0" text-anchor="middle" font-size="10" font-weight="400" fill="#52514e">ForLoops:</text>
<text x="794.2" y="105.0" text-anchor="middle" font-size="10" font-weight="400" fill="#52514e">T(z0,1,V): 1; Reuse=Reuse</text>
<rect x="691.8" y="141.0" width="204.8" height="95.0" rx="9" fill="#f1f3f5" stroke="#8a929b" stroke-width="1.5"/>
<text x="794.2" y="162.0" text-anchor="middle" font-size="11" font-weight="600" fill="#0b0b0b">U_1</text>
<text x="794.2" y="177.0" text-anchor="middle" font-size="10" font-weight="400" fill="#52514e">(32, 9216)</text>
<text x="794.2" y="192.0" text-anchor="middle" font-size="10" font-weight="400" fill="#52514e">z0=32 z1=9216</text>
<text x="794.2" y="207.0" text-anchor="middle" font-size="10" font-weight="400" fill="#52514e">ForLoops:</text>
<text x="794.2" y="222.0" text-anchor="middle" font-size="10" font-weight="400" fill="#52514e">T(z0,1,V): 1; Reuse=No Reuse</text>
<rect x="2245.2" y="24.0" width="204.8" height="95.0" rx="9" fill="#f1f3f5" stroke="#8a929b" stroke-width="1.5"/>
<text x="2347.6" y="45.0" text-anchor="middle" font-size="11" font-weight="600" fill="#0b0b0b">A16_2</text>
<text x="2347.6" y="60.0" text-anchor="middle" font-size="10" font-weight="400" fill="#52514e">(32, 9216)</text>
<text x="2347.6" y="75.0" text-anchor="middle" font-size="10" font-weight="400" fill="#52514e">z0=32 z1=9216</text>
<text x="2347.6" y="90.0" text-anchor="middle" font-size="10" font-weight="400" fill="#52514e">ForLoops:</text>
<text x="2347.6" y="105.0" text-anchor="middle" font-size="10" font-weight="400" fill="#52514e">T(z0,1,V): 1; Reuse=No Reuse</text>
</svg>